#!OML:ASF H:\Dans Jumps\Project 1\Capture day 1\Session 1\subject.ASF
:FULLY-SPECIFIED
:DEGREES
128
root 0.599149 17.4996 -14.1432 5.67332 0.493279 -1.88704
lowerback -2.36751 -0.739494 1.12135
upperback 1.96654 -1.08782 1.85259
thorax 3.36505 -0.538902 1.22018
lowerneck -13.9138 -0.250505 -2.52799
upperneck 5.6499 0.0534104 0.735823
head 3.93281 0.00939013 0.636601
rclavicle 6.4605e-016 5.1684e-015
rhumerus -25.0456 -18.5418 -79.6459
rradius 25.7932
rwrist 32.13
rhand -17.0323 -26.9846
rfingers 7.12502
rthumb 9.20422 -56.7637
lclavicle 6.4605e-016 5.1684e-015
lhumerus -22.8613 -2.85452 89.6001
lradius 20.993
lwrist 4.85154
lhand -24.3152 -3.44886
lfingers 7.12502
lthumb 2.17299 26.5198
rfemur -13.1238 -2.59783 19.8774
rtibia 21.33
rfoot -13.2176 -2.81482
rtoes 2.78456
lfemur -12.4058 8.38232 -17.881
ltibia 19.4553
lfoot -11.4582 3.23329
ltoes -7.52415
129
root 0.600418 17.4945 -14.1628 5.75999 0.502144 -1.90293
lowerback -2.20239 -0.727579 1.13705
upperback 2.0205 -1.07012 1.86356
thorax 3.32723 -0.529976 1.22541
lowerneck -14.0054 -0.248154 -2.52161
upperneck 5.70966 0.0601783 0.712477
head 3.96571 0.0112506 0.629011
rclavicle -1.64494e-014 2.38542e-014
rhumerus -24.9669 -18.2616 -79.7113
rradius 25.972
rwrist 31.9238
rhand -17.0949 -26.9002
rfingers 7.12502
rthumb 9.14377 -56.6819
lclavicle -1.64494e-014 2.38542e-014
lhumerus -22.7876 -2.87493 89.5586
lradius 21.1415
lwrist 5.01684
lhand -24.3509 -3.49196
lfingers 7.12502
lthumb 2.13845 26.4771
rfemur -13.4331 -2.59323 19.8964
rtibia 21.5934
rfoot -13.2638 -2.82999
rtoes 2.71784
lfemur -12.7676 8.39607 -17.8973
ltibia 19.8126
lfoot -11.5362 3.26256
ltoes -7.60447
130
root 0.601697 17.4888 -14.184 5.85704 0.504263 -1.92164
lowerback -2.02747 -0.71266 1.15405
upperback 2.07988 -1.04831 1.8757
thorax 3.28943 -0.51899 1.23136
lowerneck -14.1012 -0.248606 -2.52169
upperneck 5.75884 0.0637689 0.697009
head 3.99606 0.0119065 0.624643
rclavicle 1.44119e-015 -1.03368e-014
rhumerus -24.8751 -17.995 -79.7712
rradius 26.1481
rwrist 31.717
rhand -17.1635 -26.7954
rfingers 7.12502
rthumb 9.07755 -56.5801
lclavicle 1.44119e-015 -1.03368e-014
lhumerus -22.703 -2.90108 89.5129
lradius 21.2889
lwrist 5.18063
lhand -24.3833 -3.53134
lfingers 7.12502
lthumb 2.10714 26.438
rfemur -13.7746 -2.58792 19.9192
rtibia 21.8815
rfoot -13.3133 -2.84243
rtoes 2.64478
lfemur -13.1588 8.42217 -17.9139
ltibia 20.194
lfoot -11.62 3.29031
ltoes -7.68479
131
root 0.602903 17.4825 -14.2066 5.96326 0.501536 -1.94211
lowerback -1.83785 -0.696387 1.16922
upperback 2.14155 -1.02431 1.89004
thorax 3.24573 -0.506998 1.24078
lowerneck -14.2015 -0.248954 -2.51982
upperneck 5.80048 0.0675345 0.678749
head 4.02483 0.012573 0.619103
rclavicle -1.53561e-014 1.19271e-015
rhumerus -24.7806 -17.7307 -79.8242
rradius 26.3283
rwrist 31.4997
rhand -17.224 -26.7
rfingers 7.12502
rthumb 9.01916 -56.4871
lclavicle -1.53561e-014 1.19271e-015
lhumerus -22.6132 -2.92442 89.4624
lradius 21.4337
lwrist 5.33565
lhand -24.4054 -3.55246
lfingers 7.12502
lthumb 2.08584 26.4171
rfemur -14.1454 -2.57797 19.945
rtibia 22.1937
rfoot -13.3659 -2.85948
rtoes 2.55057
lfemur -13.5788 8.45422 -17.9307
ltibia 20.6014
lfoot -11.7114 3.3195
ltoes -7.75506
132
root 0.603967 17.4756 -14.2308 6.07688 0.495235 -1.96738
lowerback -1.62874 -0.678905 1.18533
upperback 2.20445 -0.998281 1.90732
thorax 3.19232 -0.494027 1.25291
lowerneck -14.3034 -0.250725 -2.52153
upperneck 5.83457 0.0697071 0.664767
head 4.05153 0.012659 0.615329
rclavicle -6.75868e-015 -2.14687e-014
rhumerus -24.6896 -17.4671 -79.8696
rradius 26.5193
rwrist 31.261
rhand -17.2648 -26.6245
rfingers 7.12502
rthumb 8.97983 -56.4134
lclavicle -6.75868e-015 -2.14687e-014
lhumerus -22.5255 -2.95308 89.4093
lradius 21.5826
lwrist 5.49022
lhand -24.4261 -3.57656
lfingers 7.12502
lthumb 2.06583 26.3932
rfemur -14.5418 -2.55917 19.9766
rtibia 22.5283
rfoot -13.4233 -2.88329
rtoes 2.44774
lfemur -14.0276 8.49275 -17.9435
ltibia 21.0376
lfoot -11.81 3.34762
ltoes -7.81723
133
root 0.60484 17.4679 -14.2566 6.19604 0.486826 -1.99778
lowerback -1.39733 -0.660799 1.20229
upperback 2.2678 -0.970862 1.92698
thorax 3.1268 -0.4804 1.26721
lowerneck -14.4028 -0.253803 -2.52561
upperneck 5.86214 0.0700154 0.656043
head 4.07584 0.0121122 0.613408
rclavicle 1.44119e-015 1.07344e-014
rhumerus -24.6041 -17.2135 -79.9043
rradius 26.711
rwrist 31.0246
rhand -17.308 -26.5454
rfingers 7.12502
rthumb 8.93812 -56.336
lclavicle 1.44119e-015 1.07344e-014
lhumerus -22.4478 -2.98521 89.3516
lradius 21.7448
lwrist 5.64419
lhand -24.4426 -3.5554
lfingers 7.12502
lthumb 2.04986 26.4145
rfemur -14.9619 -2.53058 20.0142
rtibia 22.8855
rfoot -13.4864 -2.91499
rtoes 2.34199
lfemur -14.5039 8.53993 -17.9518
ltibia 21.5029
lfoot -11.9186 3.37162
ltoes -7.88338
134
root 0.605471 17.4595 -14.284 6.32066 0.476212 -2.03413
lowerback -1.1434 -0.642193 1.22159
upperback 2.33218 -0.942203 1.94787
thorax 3.04963 -0.466137 1.2816
lowerneck -14.4979 -0.258211 -2.52938
upperneck 5.87933 0.0678797 0.652395
head 4.09631 0.0107331 0.612801
rclavicle 6.21202e-015 1.43125e-014
rhumerus -24.5224 -16.972 -79.9308
rradius 26.9009
rwrist 30.7966
rhand -17.3536 -26.4644
rfingers 7.12502
rthumb 8.89418 -56.2569
lclavicle 6.21202e-015 1.43125e-014
lhumerus -22.3823 -3.02618 89.287
lradius 21.9239
lwrist 5.80821
lhand -24.4463 -3.46895
lfingers 7.12502
lthumb 2.04632 26.501
rfemur -15.4059 -2.49362 20.059
rtibia 23.2655
rfoot -13.5554 -2.95322
rtoes 2.23546
lfemur -15.0089 8.59516 -17.9545
ltibia 21.9991
lfoot -12.0376 3.39222
ltoes -7.9505
135
root 0.605898 17.4503 -14.3129 6.4522 0.466694 -2.07383
lowerback -0.871081 -0.624355 1.24104
upperback 2.39868 -0.914015 1.96923
thorax 2.96431 -0.452126 1.2964
lowerneck -14.5854 -0.262937 -2.52837
upperneck 5.88303 0.0642871 0.647664
head 4.11141 0.00876994 0.610954
rclavicle 9.44227e-015 -1.03368e-014
rhumerus -24.4389 -16.749 -79.949
rradius 27.0818
rwrist 30.5867
rhand -17.4045 -26.3853
rfingers 7.12502
rthumb 8.84499 -56.1799
lclavicle 9.44227e-015 -1.03368e-014
lhumerus -22.3295 -3.0831 89.2163
lradius 22.1229
lwrist 5.98739
lhand -24.4464 -3.32077
lfingers 7.12502
lthumb 2.04619 26.6492
rfemur -15.8758 -2.4559 20.1082
rtibia 23.6704
rfoot -13.6324 -2.99279
rtoes 2.13479
lfemur -15.5453 8.66078 -17.9556
ltibia 22.5264
lfoot -12.167 3.40599
ltoes -8.0278
